# xmcd CD database file
#
# Track frame offsets:
#	150
#	6428
#	24760
#	39515
#	60238
#	69805
#	76475
#	103120
#	123290
#	138343
#	161073
#	183658
#
# Disc length: 2607 seconds
#
# Revision: 0
# Processed by: cddbd v1.5PL3 Copyright (c) Steve Scherf et al.
# Submitted via: CDex 1.50beta10
#
DISCID=920a2d0c
DTITLE=Hi-posi - GLUON
DYEAR=1998
DGENRE=JPop
TTITLE0=muon
TTITLE1=tabooの上限
TTITLE2=まじめなきもち
TTITLE3=小っちゃな庭
TTITLE4=愛情のけちんぼ
TTITLE5=thin film interference
TTITLE6=gluon
TTITLE7=my favourite things
TTITLE8=theme of a duck
TTITLE9=dipole
TTITLE10=例えばここに
TTITLE11=ひとっとび
EXTD=YEAR: 1998
EXTT0=
EXTT1=
EXTT2=
EXTT3=
EXTT4=
EXTT5=
EXTT6=
EXTT7=
EXTT8=
EXTT9=
EXTT10=
EXTT11=
PLAYORDER=
